<mxfile host="app.diagrams.net" agent="GitHub Copilot" etag="1" version="24.0.0">
  <diagram name="Pipeline-Bovespa-Arquitetura" id="pipeline-arquitetura">
    <mxGraphModel dx="1422" dy="794" grid="1" gridSize="10" guides="1" tooltips="1" connect="1" arrows="1" fold="1" page="1" pageScale="1" pageWidth="1169" pageHeight="827" math="0" shadow="0">
      <root>
        <mxCell id="0" />
        <mxCell id="1" parent="0" />
        
        <!-- Título -->
        <mxCell id="title" value="🏗️ Pipeline Batch Bovespa - Arquitetura AWS" style="text;html=1;align=center;verticalAlign=middle;resizable=0;points=[];autosize=1;strokeColor=none;fillColor=none;fontSize=20;fontStyle=1" vertex="1" parent="1">
          <mxGeometry x="350" y="30" width="470" height="30" as="geometry" />
        </mxCell>

        <!-- Camada 1: Fonte de Dados -->
        <mxCell id="b3-source" value="🌐 B3 Website&#xa;(4 Endpoints IBOV)" style="rounded=1;whiteSpace=wrap;html=1;fillColor=#dae8fc;strokeColor=#6c8ebf;fontSize=12;fontStyle=1" vertex="1" parent="1">
          <mxGeometry x="80" y="120" width="120" height="80" as="geometry" />
        </mxCell>

        <!-- Camada 2: Trigger -->
        <mxCell id="eventbridge" value="⏰ EventBridge&#xa;(Trigger Diário)" style="rounded=1;whiteSpace=wrap;html=1;fillColor=#fff2cc;strokeColor=#d6b656;fontSize=12;fontStyle=1" vertex="1" parent="1">
          <mxGeometry x="280" y="120" width="120" height="80" as="geometry" />
        </mxCell>

        <!-- Camada 3: Ingestão -->
        <mxCell id="lambda-scraper" value="⚡ Lambda Function&#xa;(Scraper + Validation)" style="rounded=1;whiteSpace=wrap;html=1;fillColor=#f8cecc;strokeColor=#b85450;fontSize=12;fontStyle=1" vertex="1" parent="1">
          <mxGeometry x="480" y="120" width="140" height="80" as="geometry" />
        </mxCell>

        <!-- Camada 4: Storage Raw -->
        <mxCell id="s3-raw" value="📦 S3 Bucket&#xa;bovespa-raw/&#xa;└── year=2025/&#xa;    └── month=08/&#xa;        └── day=03/" style="rounded=1;whiteSpace=wrap;html=1;fillColor=#e1d5e7;strokeColor=#9673a6;fontSize=11;fontStyle=1" vertex="1" parent="1">
          <mxGeometry x="700" y="100" width="140" height="120" as="geometry" />
        </mxCell>

        <!-- Camada 5: ETL -->
        <mxCell id="glue-job" value="🔄 AWS Glue Job&#xa;(ETL Visual Studio)&#xa;• Limpeza&#xa;• Transformação&#xa;• Agregação" style="rounded=1;whiteSpace=wrap;html=1;fillColor=#d5e8d4;strokeColor=#82b366;fontSize=11;fontStyle=1" vertex="1" parent="1">
          <mxGeometry x="700" y="280" width="140" height="100" as="geometry" />
        </mxCell>

        <!-- Camada 6: Storage Curated -->
        <mxCell id="s3-curated" value="📊 S3 Bucket&#xa;bovespa-curated/&#xa;└── sector=financial/&#xa;    └── year=2025/&#xa;        └── month=08/" style="rounded=1;whiteSpace=wrap;html=1;fillColor=#e1d5e7;strokeColor=#9673a6;fontSize=11;fontStyle=1" vertex="1" parent="1">
          <mxGeometry x="480" y="280" width="140" height="100" as="geometry" />
        </mxCell>

        <!-- Camada 7: Catalog -->
        <mxCell id="glue-catalog" value="📋 Glue Data Catalog&#xa;• Schema Registry&#xa;• Table Metadata&#xa;• Partition Info" style="rounded=1;whiteSpace=wrap;html=1;fillColor=#fff2cc;strokeColor=#d6b656;fontSize=11;fontStyle=1" vertex="1" parent="1">
          <mxGeometry x="280" y="280" width="140" height="100" as="geometry" />
        </mxCell>

        <!-- Camada 8: Query Engine -->
        <mxCell id="athena" value="🔍 Amazon Athena&#xa;• SQL Queries&#xa;• Sector Analysis&#xa;• Stock Ranking" style="rounded=1;whiteSpace=wrap;html=1;fillColor=#f8cecc;strokeColor=#b85450;fontSize=11;fontStyle=1" vertex="1" parent="1">
          <mxGeometry x="80" y="280" width="140" height="100" as="geometry" />
        </mxCell>

        <!-- Camada 9: Visualização (Opcional) -->
        <mxCell id="quicksight" value="📈 QuickSight&#xa;(Dashboard)&#xa;[OPCIONAL]" style="rounded=1;whiteSpace=wrap;html=1;fillColor=#e1d5e7;strokeColor=#9673a6;fontSize=11;fontStyle=1;dashed=1" vertex="1" parent="1">
          <mxGeometry x="80" y="450" width="120" height="80" as="geometry" />
        </mxCell>

        <!-- Setas de Fluxo -->
        
        <!-- B3 -> EventBridge -->
        <mxCell id="arrow1" value="" style="edgeStyle=orthogonalEdgeStyle;rounded=0;orthogonalLoop=1;jettySize=auto;html=1;strokeWidth=2;strokeColor=#666666" edge="1" parent="1" source="b3-source" target="eventbridge">
          <mxGeometry relative="1" as="geometry" />
        </mxCell>
        <mxCell id="label1" value="Daily Schedule" style="text;html=1;align=center;verticalAlign=middle;resizable=0;points=[];autosize=1;strokeColor=none;fillColor=none;fontSize=10" vertex="1" parent="1">
          <mxGeometry x="200" y="140" width="80" height="20" as="geometry" />
        </mxCell>

        <!-- EventBridge -> Lambda -->
        <mxCell id="arrow2" value="" style="edgeStyle=orthogonalEdgeStyle;rounded=0;orthogonalLoop=1;jettySize=auto;html=1;strokeWidth=2;strokeColor=#666666" edge="1" parent="1" source="eventbridge" target="lambda-scraper">
          <mxGeometry relative="1" as="geometry" />
        </mxCell>
        <mxCell id="label2" value="Trigger" style="text;html=1;align=center;verticalAlign=middle;resizable=0;points=[];autosize=1;strokeColor=none;fillColor=none;fontSize=10" vertex="1" parent="1">
          <mxGeometry x="420" y="140" width="50" height="20" as="geometry" />
        </mxCell>

        <!-- Lambda -> S3 Raw -->
        <mxCell id="arrow3" value="" style="edgeStyle=orthogonalEdgeStyle;rounded=0;orthogonalLoop=1;jettySize=auto;html=1;strokeWidth=2;strokeColor=#666666" edge="1" parent="1" source="lambda-scraper" target="s3-raw">
          <mxGeometry relative="1" as="geometry" />
        </mxCell>
        <mxCell id="label3" value="Parquet Files" style="text;html=1;align=center;verticalAlign=middle;resizable=0;points=[];autosize=1;strokeColor=none;fillColor=none;fontSize=10" vertex="1" parent="1">
          <mxGeometry x="620" y="140" width="80" height="20" as="geometry" />
        </mxCell>

        <!-- S3 Raw -> Glue Job -->
        <mxCell id="arrow4" value="" style="edgeStyle=orthogonalEdgeStyle;rounded=0;orthogonalLoop=1;jettySize=auto;html=1;strokeWidth=2;strokeColor=#666666" edge="1" parent="1" source="s3-raw" target="glue-job">
          <mxGeometry relative="1" as="geometry" />
        </mxCell>
        <mxCell id="label4" value="ETL Process" style="text;html=1;align=center;verticalAlign=middle;resizable=0;points=[];autosize=1;strokeColor=none;fillColor=none;fontSize=10" vertex="1" parent="1">
          <mxGeometry x="780" y="240" width="70" height="20" as="geometry" />
        </mxCell>

        <!-- Glue Job -> S3 Curated -->
        <mxCell id="arrow5" value="" style="edgeStyle=orthogonalEdgeStyle;rounded=0;orthogonalLoop=1;jettySize=auto;html=1;strokeWidth=2;strokeColor=#666666" edge="1" parent="1" source="glue-job" target="s3-curated">
          <mxGeometry relative="1" as="geometry" />
        </mxCell>
        <mxCell id="label5" value="Processed Data" style="text;html=1;align=center;verticalAlign=middle;resizable=0;points=[];autosize=1;strokeColor=none;fillColor=none;fontSize=10" vertex="1" parent="1">
          <mxGeometry x="620" y="310" width="80" height="20" as="geometry" />
        </mxCell>

        <!-- S3 Curated -> Glue Catalog -->
        <mxCell id="arrow6" value="" style="edgeStyle=orthogonalEdgeStyle;rounded=0;orthogonalLoop=1;jettySize=auto;html=1;strokeWidth=2;strokeColor=#666666" edge="1" parent="1" source="s3-curated" target="glue-catalog">
          <mxGeometry relative="1" as="geometry" />
        </mxCell>
        <mxCell id="label6" value="Schema" style="text;html=1;align=center;verticalAlign=middle;resizable=0;points=[];autosize=1;strokeColor=none;fillColor=none;fontSize=10" vertex="1" parent="1">
          <mxGeometry x="430" y="310" width="50" height="20" as="geometry" />
        </mxCell>

        <!-- Glue Catalog -> Athena -->
        <mxCell id="arrow7" value="" style="edgeStyle=orthogonalEdgeStyle;rounded=0;orthogonalLoop=1;jettySize=auto;html=1;strokeWidth=2;strokeColor=#666666" edge="1" parent="1" source="glue-catalog" target="athena">
          <mxGeometry relative="1" as="geometry" />
        </mxCell>
        <mxCell id="label7" value="Metadata" style="text;html=1;align=center;verticalAlign=middle;resizable=0;points=[];autosize=1;strokeColor=none;fillColor=none;fontSize=10" vertex="1" parent="1">
          <mxGeometry x="220" y="310" width="60" height="20" as="geometry" />
        </mxCell>

        <!-- Athena -> QuickSight (Opcional) -->
        <mxCell id="arrow8" value="" style="edgeStyle=orthogonalEdgeStyle;rounded=0;orthogonalLoop=1;jettySize=auto;html=1;strokeWidth=2;strokeColor=#666666;dashed=1" edge="1" parent="1" source="athena" target="quicksight">
          <mxGeometry relative="1" as="geometry" />
        </mxCell>
        <mxCell id="label8" value="Visualization" style="text;html=1;align=center;verticalAlign=middle;resizable=0;points=[];autosize=1;strokeColor=none;fillColor=none;fontSize=10" vertex="1" parent="1">
          <mxGeometry x="20" y="410" width="70" height="20" as="geometry" />
        </mxCell>

        <!-- Camadas de Agrupamento -->
        <mxCell id="layer-ingestion" value="INGESTÃO" style="rounded=0;whiteSpace=wrap;html=1;fillColor=none;strokeColor=#999999;strokeWidth=1;dashed=1;fontSize=12;fontStyle=2" vertex="1" parent="1">
          <mxGeometry x="40" y="80" width="820" height="160" as="geometry" />
        </mxCell>

        <mxCell id="layer-processing" value="PROCESSAMENTO & ANÁLISE" style="rounded=0;whiteSpace=wrap;html=1;fillColor=none;strokeColor=#999999;strokeWidth=1;dashed=1;fontSize=12;fontStyle=2" vertex="1" parent="1">
          <mxGeometry x="40" y="260" width="820" height="140" as="geometry" />
        </mxCell>

        <mxCell id="layer-visualization" value="VISUALIZAÇÃO (OPCIONAL)" style="rounded=0;whiteSpace=wrap;html=1;fillColor=none;strokeColor=#999999;strokeWidth=1;dashed=1;fontSize=12;fontStyle=2" vertex="1" parent="1">
          <mxGeometry x="40" y="420" width="820" height="100" as="geometry" />
        </mxCell>

        <!-- Legenda -->
        <mxCell id="legend-title" value="📋 Legenda de Componentes" style="text;html=1;align=left;verticalAlign=middle;resizable=0;points=[];autosize=1;strokeColor=none;fillColor=none;fontSize=14;fontStyle=1" vertex="1" parent="1">
          <mxGeometry x="920" y="120" width="200" height="20" as="geometry" />
        </mxCell>

        <mxCell id="legend-external" value="🌐 Fontes Externas" style="rounded=1;whiteSpace=wrap;html=1;fillColor=#dae8fc;strokeColor=#6c8ebf;fontSize=10" vertex="1" parent="1">
          <mxGeometry x="920" y="150" width="100" height="30" as="geometry" />
        </mxCell>

        <mxCell id="legend-trigger" value="⏰ Triggers/Events" style="rounded=1;whiteSpace=wrap;html=1;fillColor=#fff2cc;strokeColor=#d6b656;fontSize=10" vertex="1" parent="1">
          <mxGeometry x="920" y="190" width="100" height="30" as="geometry" />
        </mxCell>

        <mxCell id="legend-compute" value="⚡ Compute/Processing" style="rounded=1;whiteSpace=wrap;html=1;fillColor=#f8cecc;strokeColor=#b85450;fontSize=10" vertex="1" parent="1">
          <mxGeometry x="920" y="230" width="100" height="30" as="geometry" />
        </mxCell>

        <mxCell id="legend-storage" value="📦 Storage" style="rounded=1;whiteSpace=wrap;html=1;fillColor=#e1d5e7;strokeColor=#9673a6;fontSize=10" vertex="1" parent="1">
          <mxGeometry x="920" y="270" width="100" height="30" as="geometry" />
        </mxCell>

        <mxCell id="legend-etl" value="🔄 ETL/Transformation" style="rounded=1;whiteSpace=wrap;html=1;fillColor=#d5e8d4;strokeColor=#82b366;fontSize=10" vertex="1" parent="1">
          <mxGeometry x="920" y="310" width="100" height="30" as="geometry" />
        </mxCell>

        <!-- Notas Técnicas -->
        <mxCell id="notes-title" value="📝 Especificações Técnicas" style="text;html=1;align=left;verticalAlign=middle;resizable=0;points=[];autosize=1;strokeColor=none;fillColor=none;fontSize=14;fontStyle=1" vertex="1" parent="1">
          <mxGeometry x="920" y="370" width="200" height="20" as="geometry" />
        </mxCell>

        <mxCell id="notes-content" value="• Particionamento: year/month/day&#xa;• Formato: Parquet (compressão)&#xa;• Trigger: EventBridge (diário)&#xa;• ETL: Glue Visual Studio&#xa;• Query: Athena SQL&#xa;• Opcional: QuickSight Dashboard" style="text;html=1;align=left;verticalAlign=top;resizable=0;points=[];autosize=1;strokeColor=none;fillColor=none;fontSize=10" vertex="1" parent="1">
          <mxGeometry x="920" y="395" width="200" height="100" as="geometry" />
        </mxCell>

      </root>
    </mxGraphModel>
  </diagram>
</mxfile>
